<?xml version="1.0" encoding="UTF-8"?>
<svg width="40px" height="40px" viewBox="0 0 40 40" version="1.1" xmlns="http://www.w3.org/2000/svg"
>
  <!-- Generator: Sketch 47.1 (45422) - http://www.bohemiancoding.com/sketch -->
  <title>Shape</title>
  <desc>Created with Sketch.</desc>
  <defs></defs>
  <g id="Page-1" stroke="none" stroke-width="1" fill="none" fill-rule="evenodd">
    <path
      d="M7.55263158,5.82631579 C8.63157895,6.25789474 7.55263158,7.98421053 6.90526316,9.06315789 C6.25789474,9.92631579 0.647368421,17.4789474 0.647368421,22.6578947 C0.647368421,25.4631579 1.72631579,27.6210526 3.45263158,29.1315789 C5.17894737,30.4263158 7.12105263,30.6421053 9.06315789,30.2105263 C11.4368421,29.5631579 13.1631579,27.1894737 15.7526316,24.1684211 C18.3421053,20.9315789 21.7947368,16.8315789 24.6,16.8315789 C28.0526316,16.8315789 28.0526316,18.9894737 28.4842105,20.7157895 C20.2842105,22.0105263 16.8315789,28.7 16.8315789,32.3684211 C16.8315789,36.0368421 19.8526316,39.0578947 23.7368421,39.0578947 C27.1894737,39.0578947 33.0157895,36.2526316 33.8789474,25.8947368 L39.2736842,25.8947368 L39.2736842,20.5 L33.8789474,20.5 C33.4473684,17.0473684 31.5052632,11.4368421 25.2473684,11.4368421 C20.5,11.4368421 16.1842105,15.5368421 14.6736842,17.4789474 C13.3789474,18.9894737 10.1421053,22.8736842 9.71052632,23.3052632 C9.06315789,23.9526316 8.2,25.0315789 7.33684211,25.0315789 C6.47368421,25.0315789 5.82631579,23.3052632 6.47368421,20.9315789 C7.33684211,18.5578947 9.49473684,14.6736842 10.5736842,13.3789474 C12.0842105,10.7894737 13.1631579,9.06315789 13.1631579,6.25789474 C13.1631579,1.51052632 9.71052632,0 7.76842105,0 C4.96315789,0 2.58947368,2.15789474 1.94210526,2.80526316 C1.29473684,3.45263158 0.647368421,4.1 0,4.74736842 L3.88421053,8.41578947 C5.39473684,6.90526316 6.90526316,5.39473684 7.55263158,5.82631579 Z M23.9526316,33.6631579 C23.3052632,33.6631579 22.4421053,33.0157895 22.4421053,32.1526316 C22.4421053,30.8578947 23.9526316,27.4052632 28.7,26.1105263 C27.8368421,31.9368421 25.4631579,33.6631579 23.9526316,33.6631579 L23.9526316,33.6631579 Z"
      id="Shape" fill="#FFFFFF"></path>
  </g>
</svg>
